TITLE ""
FILE "Disc2Track33.mp3" MP3
  TRACK 01 AUDIO
    TITLE "Disc2Track33_01"
    INDEX 01 00:00:00
  TRACK 02 AUDIO
    TITLE "Disc2Track33_02"
    INDEX 01 00:01:12
  TRACK 03 AUDIO
    TITLE "Disc2Track33_03"
    INDEX 01 00:03:24
  TRACK 04 AUDIO
    TITLE "Disc2Track33_04"
    INDEX 01 00:04:45
  TRACK 05 AUDIO
    TITLE "Disc2Track33_05"
    INDEX 01 00:07:12
  TRACK 06 AUDIO
    TITLE "Disc2Track33_06"
    INDEX 01 00:07:46
  TRACK 07 AUDIO
    TITLE "Disc2Track33_07"
    INDEX 01 00:09:05
  TRACK 08 AUDIO
    TITLE "Disc2Track33_08"
    INDEX 01 00:10:20
  TRACK 09 AUDIO
    TITLE "Disc2Track33_09"
    INDEX 01 00:11:55
  TRACK 10 AUDIO
    TITLE "Disc2Track33_10"
    INDEX 01 00:15:31
  TRACK 11 AUDIO
    TITLE "Disc2Track33_11"
    INDEX 01 00:15:63
  TRACK 12 AUDIO
    TITLE "Disc2Track33_12"
    INDEX 01 00:17:13
  TRACK 13 AUDIO
    TITLE "Disc2Track33_13"
    INDEX 01 00:21:28
  TRACK 14 AUDIO
    TITLE "Disc2Track33_14"
    INDEX 01 00:22:53
  TRACK 15 AUDIO
    TITLE "Disc2Track33_15"
    INDEX 01 00:26:59
  TRACK 16 AUDIO
    TITLE "Disc2Track33_16"
    INDEX 01 00:27:15
  TRACK 17 AUDIO
    TITLE "Disc2Track33_17"
    INDEX 01 00:28:40
  TRACK 18 AUDIO
    TITLE "Disc2Track33_18"
    INDEX 01 00:30:47
  TRACK 19 AUDIO
    TITLE "Disc2Track33_19"
    INDEX 01 00:32:01
  TRACK 20 AUDIO
    TITLE "Disc2Track33_20"
    INDEX 01 00:32:38
  TRACK 21 AUDIO
    TITLE "Disc2Track33_21"
    INDEX 01 00:34:11
  TRACK 22 AUDIO
    TITLE "Disc2Track33_22"
    INDEX 01 00:35:13
  TRACK 23 AUDIO
    TITLE "Disc2Track33_23"
    INDEX 01 00:36:61
  TRACK 24 AUDIO
    TITLE "Disc2Track33_24"
    INDEX 01 00:39:26
  TRACK 25 AUDIO
    TITLE "Disc2Track33_25"
    INDEX 01 00:39:57
  TRACK 26 AUDIO
    TITLE "Disc2Track33_26"
    INDEX 01 00:41:05
  TRACK 27 AUDIO
    TITLE "Disc2Track33_27"
    INDEX 01 00:42:54
  TRACK 28 AUDIO
    TITLE "Disc2Track33_28"
    INDEX 01 00:44:02
  TRACK 29 AUDIO
    TITLE "Disc2Track33_29"
    INDEX 01 00:47:10
  TRACK 30 AUDIO
    TITLE "Disc2Track33_30"
    INDEX 01 00:47:43
  TRACK 31 AUDIO
    TITLE "Disc2Track33_31"
    INDEX 01 00:48:62
  TRACK 32 AUDIO
    TITLE "Disc2Track33_32"
    INDEX 01 00:50:06
  TRACK 33 AUDIO
    TITLE "Disc2Track33_33"
    INDEX 01 00:51:23
  TRACK 34 AUDIO
    TITLE "Disc2Track33_34"
    INDEX 01 00:54:26
  TRACK 35 AUDIO
    TITLE "Disc2Track33_35"
    INDEX 01 00:54:55
  TRACK 36 AUDIO
    TITLE "Disc2Track33_36"
    INDEX 01 00:56:11
  TRACK 37 AUDIO
    TITLE "Disc2Track33_37"
    INDEX 01 00:56:73
  TRACK 38 AUDIO
    TITLE "Disc2Track33_38"
    INDEX 01 00:58:31
  TRACK 39 AUDIO
    TITLE "Disc2Track33_39"
    INDEX 01 00:58:67
  TRACK 40 AUDIO
    TITLE "Disc2Track33_40"
    INDEX 01 01:00:12
  TRACK 41 AUDIO
    TITLE "Disc2Track33_41"
    INDEX 01 01:01:20
  TRACK 42 AUDIO
    TITLE "Disc2Track33_42"
    INDEX 01 01:02:47
  TRACK 43 AUDIO
    TITLE "Disc2Track33_43"
    INDEX 01 01:03:11
  TRACK 44 AUDIO
    TITLE "Disc2Track33_44"
    INDEX 01 01:04:32
  TRACK 45 AUDIO
    TITLE "Disc2Track33_45"
    INDEX 01 01:05:69
  TRACK 46 AUDIO
    TITLE "Disc2Track33_46"
    INDEX 01 01:07:13
  TRACK 47 AUDIO
    TITLE "Disc2Track33_47"
    INDEX 01 01:09:13
  TRACK 48 AUDIO
    TITLE "Disc2Track33_48"
    INDEX 01 01:09:45
  TRACK 49 AUDIO
    TITLE "Disc2Track33_49"
    INDEX 01 01:10:70
  TRACK 50 AUDIO
    TITLE "Disc2Track33_50"
    INDEX 01 01:13:33
  TRACK 51 AUDIO
    TITLE "Disc2Track33_51"
    INDEX 01 01:14:58
  TRACK 52 AUDIO
    TITLE "Disc2Track33_52"
    INDEX 01 01:15:22
  TRACK 53 AUDIO
    TITLE "Disc2Track33_53"
    INDEX 01 01:16:45
  TRACK 54 AUDIO
    TITLE "Disc2Track33_54"
    INDEX 01 01:18:06
  TRACK 55 AUDIO
    TITLE "Disc2Track33_55"
    INDEX 01 01:19:27
  TRACK 56 AUDIO
    TITLE "Disc2Track33_56"
    INDEX 01 01:22:30
  TRACK 57 AUDIO
    TITLE "Disc2Track33_57"
    INDEX 01 01:22:61
  TRACK 58 AUDIO
    TITLE "Disc2Track33_58"
    INDEX 01 01:24:19
  TRACK 59 AUDIO
    TITLE "Disc2Track33_59"
    INDEX 01 01:25:28
  TRACK 60 AUDIO
    TITLE "Disc2Track33_60"
    INDEX 01 01:26:59
  TRACK 61 AUDIO
    TITLE "Disc2Track33_61"
    INDEX 01 01:28:56
  TRACK 62 AUDIO
    TITLE "Disc2Track33_62"
    INDEX 01 01:29:14
  TRACK 63 AUDIO
    TITLE "Disc2Track33_63"
    INDEX 01 01:30:47
  TRACK 64 AUDIO
    TITLE "Disc2Track33_64"
    INDEX 01 01:32:01
  TRACK 65 AUDIO
    TITLE "Disc2Track33_65"
    INDEX 01 01:33:33
  TRACK 66 AUDIO
    TITLE "Disc2Track33_66"
    INDEX 01 01:35:60
